
            <svg xmlns="http://www.w3.org/2000/svg">
                <filter id="grayscale">
                    <feColorMatrix type="saturate" values="0"/>
                </filter>
                <g filter="url(#grayscale)">
                    <svg xmlns="http://www.w3.org/2000/svg" viewBox="-15.125001831054675 59 605.25 347.37000274658203"> <svg xmlns="http://www.w3.org/2000/svg" xmlns:xlink="http://www.w3.org/1999/xlink" viewBox="0 0 143.09922790527344 179.6899871826172" height="143.989990234375" width="114.66892878185502" y="129" x="230.166" preserveAspectRatio="xMinYMin" style="overflow: visible;"><linearGradient id="New_Gradient_Swatch_copy_35" x1="42.74" y1="198.85" x2="89.72" y2="-17.66" gradientUnits="userSpaceOnUse" style=""><stop offset="0" stop-color="#d0a478"></stop><stop offset="0.85" stop-color="#dab999"></stop><stop offset="0.99" stop-color="#dcbd9f"></stop></linearGradient><path id="Layer_1-2" dataName="Layer 1" class="cls-1" d="M142.18,114A51.45,51.45,0,0,0,129,88.31c9.76-13.08,11.14-30.26,10.29-38.54C136.05,17.84,114.6.16,78.89,0H0V52.4A29.15,29.15,0,0,0,29.12,81.52h7.71V98.34H29.12A29.16,29.16,0,0,0,0,127.46v52H38.73c4.81,0,9.74.06,14.51.11s9.77.12,14.73.12,10-.06,14.93-.24c15.22-.54,36.93-3.2,49.63-20C143.06,145.53,144.42,126.82,142.18,114ZM120.29,150.2c-6.66,8.82-18.72,13.24-37.94,13.93-9.56.34-19.41.22-28.93.11-4.81-.06-9.79-.12-14.69-.12H15.34V127.46a13.79,13.79,0,0,1,13.78-13.78h7.71v32.39h39c8.58,0,15.39-2,20.24-5.92,3.68-3,8.07-8.53,8.07-18.16s-4.43-15-8.15-17.9c-4.84-3.81-11.63-5.75-20.16-5.75H52.17V87.46L38.64,81.52H72c25.55,0,28.3-16.53,28.3-23.64S97.56,34.23,72,34.23H36.83v32H29.12A13.79,13.79,0,0,1,15.34,52.4V15.34H78.85c28,.13,42.74,11.9,45.22,36,.8,7.8-1.45,23.31-10.89,31.7l-6.77,6,7,5.69c10.29,8.3,12.94,18,13.61,21.86C128.75,126.28,127.86,140.2,120.29,150.2ZM38.64,113.67H75.78c4.94,0,8.63.85,10.68,2.46,1.06.84,2.29,2.27,2.29,5.85,0,3.83-1.27,5.35-2.37,6.24-2,1.64-5.69,2.51-10.6,2.51H52.17v-11.2ZM52.17,66.18V49.57H72c13,0,13,5,13,8.31s0,8.3-13,8.3Z" style="fill: url(#New_Gradient_Swatch_copy_35);"></path></svg> <svg y="301" viewBox="2.059999942779541 18.329999923706055 465.25 35.37000274658203" x="54.874998168945325" height="35.37000274658203" width="465.25" style="overflow: visible;"><g fill="#d8b593" fill-opacity="1" style=""><path d="M18.33 34.69Q23.72 35.43 26.02 37.80Q28.32 40.18 28.32 43.51L28.32 43.51Q28.32 46.30 26.90 48.46Q25.48 50.62 22.83 51.82Q20.19 53.02 16.56 53.02L16.56 53.02Q15.24 53.02 14.31 52.97L14.31 52.97Q11.17 52.87 8.13 52.87L8.13 52.87Q4.12 52.87 2.06 53.02L2.06 53.02L2.06 52.04Q3.82 51.94 4.63 51.65Q5.44 51.35 5.73 50.52Q6.03 49.69 6.03 47.82L6.03 47.82L6.03 23.52Q6.03 21.66 5.73 20.83Q5.44 19.99 4.63 19.70Q3.82 19.40 2.06 19.31L2.06 19.31L2.06 18.33Q4.12 18.47 8.04 18.47L8.04 18.47L13.33 18.42Q14.26 18.38 15.44 18.38L15.44 18.38Q20.43 18.38 23.10 20.48Q25.77 22.59 25.77 26.07L25.77 26.07Q25.77 28.91 23.99 31.16Q22.20 33.42 18.33 34.59L18.33 34.59L18.33 34.69ZM14.21 19.31Q12.69 19.31 11.93 19.65Q11.17 19.99 10.88 20.87Q10.58 21.76 10.58 23.52L10.58 23.52L10.58 34.59L13.87 34.59Q17.89 34.59 19.48 32.41Q21.07 30.23 21.07 26.61L21.07 26.61Q21.07 22.93 19.45 21.12Q17.84 19.31 14.21 19.31L14.21 19.31ZM14.26 51.89Q23.42 51.89 23.42 43.32L23.42 43.32Q23.42 39.45 21.34 37.44Q19.26 35.43 14.70 35.43L14.70 35.43L10.58 35.43L10.58 47.82Q10.58 49.59 10.88 50.42Q11.17 51.25 11.93 51.57Q12.69 51.89 14.26 51.89L14.26 51.89ZM56.69 47.24Q56.69 49.78 57.04 53.02L57.04 53.02Q53.85 52.87 46.30 52.87L46.30 52.87Q37.24 52.87 32.59 53.02L32.59 53.02L32.59 52.04Q34.35 51.94 35.16 51.65Q35.97 51.35 36.26 50.52Q36.55 49.69 36.55 47.82L36.55 47.82L36.55 28.42Q36.55 26.56 36.26 25.72Q35.97 24.89 35.16 24.60Q34.35 24.30 32.59 24.21L32.59 24.21L32.59 23.23Q37.24 23.37 46.30 23.37L46.30 23.37Q53.17 23.37 56.06 23.23L56.06 23.23Q55.71 26.17 55.71 28.52L55.71 28.52Q55.71 30.43 55.86 31.56L55.86 31.56L54.73 31.56Q54.39 27.54 53.04 25.95Q51.70 24.35 48.66 24.35L48.66 24.35L45.08 24.35Q43.32 24.35 42.51 24.62Q41.70 24.89 41.41 25.72Q41.11 26.56 41.11 28.42L41.11 28.42L41.11 37.53L45.18 37.53Q46.75 37.53 47.58 36.73Q48.41 35.92 48.71 34.96Q49 34.01 49.25 32.54L49.25 32.54L50.37 32.54Q50.23 34.20 50.23 36.16L50.23 36.16L50.23 38.02Q50.23 39.94 50.52 43.51L50.52 43.51L49.39 43.51Q49.10 41.16 48.27 39.84Q47.43 38.51 45.18 38.51L45.18 38.51L41.11 38.51L41.11 47.82Q41.11 49.69 41.41 50.52Q41.70 51.35 42.51 51.62Q43.32 51.89 45.08 51.89L45.08 51.89L48.66 51.89Q51.11 51.89 52.53 51.11Q53.95 50.32 54.68 48.58Q55.42 46.84 55.71 43.71L55.71 43.71L56.84 43.71Q56.69 45.03 56.69 47.24L56.69 47.24ZM89.96 50.32L90.65 50.96Q89.72 52.28 88.52 52.99Q87.32 53.70 85.65 53.70L85.65 53.70Q81.54 53.70 80.61 49.98L80.61 49.98L79.09 43.86Q78.40 41.11 77.05 40.18Q75.70 39.25 73.06 39.25L73.06 39.25L70.27 39.25L70.27 47.82Q70.27 49.69 70.56 50.52Q70.85 51.35 71.66 51.65Q72.47 51.94 74.23 52.04L74.23 52.04L74.23 53.02Q71.98 52.87 68.01 52.87L68.01 52.87Q63.80 52.87 61.74 53.02L61.74 53.02L61.74 52.04Q63.50 51.94 64.31 51.65Q65.12 51.35 65.42 50.52Q65.71 49.69 65.71 47.82L65.71 47.82L65.71 28.42Q65.71 26.56 65.42 25.72Q65.12 24.89 64.31 24.60Q63.50 24.30 61.74 24.21L61.74 24.21L61.74 23.23Q63.80 23.37 67.72 23.37L67.72 23.37L72.72 23.32Q73.55 23.27 74.63 23.27L74.63 23.27Q80.12 23.27 83.03 25.33Q85.95 27.39 85.95 30.67L85.95 30.67Q85.95 33.52 83.67 35.87Q81.39 38.22 76.20 38.86L76.20 38.86Q77.18 38.95 77.86 39.05L77.86 39.05Q80.46 39.45 81.98 40.62Q83.50 41.80 84.13 44.39L84.13 44.39L85.21 48.85Q85.60 50.57 86.07 51.28Q86.53 51.99 87.27 51.99L87.27 51.99Q88.49 51.99 89.96 50.32L89.96 50.32ZM73.40 24.21Q72.08 24.21 71.42 24.55Q70.76 24.89 70.51 25.77Q70.27 26.66 70.27 28.42L70.27 28.42L70.27 38.27L73.55 38.27Q77.86 38.27 79.45 36.43Q81.05 34.59 81.05 31.21L81.05 31.21Q81.05 27.68 79.26 25.95Q77.47 24.21 73.40 24.21L73.40 24.21ZM122.11 23.23L122.11 24.21Q120.39 24.30 119.56 24.72Q118.73 25.14 118.43 26.09Q118.14 27.05 118.14 28.91L118.14 28.91L118.14 53.26L117.01 53.26L97.41 26.12L97.41 47.33Q97.41 49.24 97.73 50.18Q98.05 51.11 98.98 51.52Q99.91 51.94 101.87 52.04L101.87 52.04L101.87 53.02Q100.11 52.87 96.87 52.87L96.87 52.87Q93.93 52.87 92.32 53.02L92.32 53.02L92.32 52.04Q94.03 51.94 94.86 51.52Q95.70 51.11 95.99 50.15Q96.29 49.20 96.29 47.33L96.29 47.33L96.29 28.42Q96.29 26.56 95.99 25.72Q95.70 24.89 94.89 24.60Q94.08 24.30 92.32 24.21L92.32 24.21L92.32 23.23Q93.93 23.37 96.87 23.37L96.87 23.37Q99.52 23.37 101.38 23.23L101.38 23.23L117.01 44.98L117.01 28.91Q117.01 27.00 116.69 26.07Q116.38 25.14 115.44 24.72Q114.51 24.30 112.55 24.21L112.55 24.21L112.55 23.23Q114.32 23.37 117.55 23.37L117.55 23.37Q120.49 23.37 122.11 23.23L122.11 23.23ZM138.96 23.23Q146.61 23.23 150.45 26.93Q154.30 30.63 154.30 37.73L154.30 37.73Q154.30 42.34 152.44 45.79Q150.58 49.24 147.02 51.13Q143.47 53.02 138.52 53.02L138.52 53.02L135.68 52.97Q132.94 52.87 131.66 52.87L131.66 52.87Q127.65 52.87 125.59 53.02L125.59 53.02L125.59 52.04Q127.35 51.94 128.16 51.65Q128.97 51.35 129.26 50.52Q129.56 49.69 129.56 47.82L129.56 47.82L129.56 28.42Q129.56 26.56 129.26 25.72Q128.97 24.89 128.16 24.60Q127.35 24.30 125.59 24.21L125.59 24.21L125.59 23.23Q127.30 23.37 130.34 23.37L130.34 23.37L134.51 23.32Q137.84 23.23 138.96 23.23L138.96 23.23ZM137.74 24.11Q136.22 24.11 135.46 24.45Q134.70 24.79 134.41 25.68Q134.11 26.56 134.11 28.32L134.11 28.32L134.11 47.92Q134.11 49.69 134.41 50.57Q134.70 51.45 135.46 51.79Q136.22 52.14 137.79 52.14L137.79 52.14Q142.25 52.14 144.80 50.54Q147.34 48.95 148.37 45.86Q149.40 42.78 149.40 37.93L149.40 37.93Q149.40 30.77 146.76 27.44Q144.11 24.11 137.74 24.11L137.74 24.11ZM186.25 23.23Q185.91 26.46 185.91 29.01L185.91 29.01Q185.91 31.56 186.05 33.03L186.05 33.03L184.93 33.03Q184.63 29.60 184.00 27.78Q183.36 25.97 181.94 25.16Q180.52 24.35 177.87 24.35L177.87 24.35L174.73 24.35L174.73 47.33Q174.73 49.39 175.13 50.32Q175.52 51.25 176.50 51.60Q177.48 51.94 179.68 52.04L179.68 52.04L179.68 53.02Q177.14 52.87 172.48 52.87L172.48 52.87Q167.58 52.87 165.23 53.02L165.23 53.02L165.23 52.04Q167.43 51.94 168.41 51.60Q169.39 51.25 169.78 50.32Q170.18 49.39 170.18 47.33L170.18 47.33L170.18 24.35L167.04 24.35Q164.40 24.35 162.97 25.16Q161.55 25.97 160.92 27.78Q160.28 29.60 159.99 33.03L159.99 33.03L158.86 33.03Q159.00 31.46 159.00 29.01L159.00 29.01Q159.00 26.46 158.66 23.23L158.66 23.23Q162.73 23.37 172.48 23.37L172.48 23.37Q182.18 23.37 186.25 23.23L186.25 23.23ZM226.18 46.75Q226.18 49.54 226.53 53.02L226.53 53.02Q223.20 52.87 215.31 52.87L215.31 52.87Q205.90 52.87 201.10 53.02L201.10 53.02L201.10 52.04Q202.86 51.94 203.67 51.65Q204.48 51.35 204.77 50.52Q205.06 49.69 205.06 47.82L205.06 47.82L205.06 23.52Q205.06 21.66 204.77 20.83Q204.48 19.99 203.67 19.70Q202.86 19.40 201.10 19.31L201.10 19.31L201.10 18.33Q205.90 18.47 215.31 18.47L215.31 18.47Q222.51 18.47 225.55 18.33L225.55 18.33Q225.20 21.56 225.20 24.11L225.20 24.11Q225.20 26.02 225.35 27.15L225.35 27.15L224.22 27.15Q223.88 23.96 223.34 22.42Q222.80 20.87 221.53 20.16Q220.26 19.45 217.66 19.45L217.66 19.45L213.59 19.45Q211.83 19.45 211.02 19.72Q210.21 19.99 209.92 20.83Q209.62 21.66 209.62 23.52L209.62 23.52L209.62 35.08L212.86 35.08Q214.57 35.08 215.50 34.28Q216.43 33.47 216.75 32.36Q217.07 31.26 217.27 29.60L217.27 29.60L217.41 28.62L218.54 28.62Q218.39 30.67 218.39 33.22L218.39 33.22L218.39 35.57Q218.39 38.07 218.69 42.53L218.69 42.53L217.56 42.53Q217.51 42.19 217.27 40.16Q217.02 38.12 215.92 37.09Q214.82 36.06 212.86 36.06L212.86 36.06L209.62 36.06L209.62 47.82Q209.62 49.69 209.92 50.52Q210.21 51.35 211.02 51.62Q211.83 51.89 213.59 51.89L213.59 51.89L217.17 51.89Q220.21 51.89 221.80 51.08Q223.39 50.27 224.13 48.49Q224.86 46.70 225.20 43.22L225.20 43.22L226.33 43.22Q226.18 44.54 226.18 46.75L226.18 46.75ZM244.31 23.23Q251.96 23.23 255.80 26.93Q259.65 30.63 259.65 37.73L259.65 37.73Q259.65 42.34 257.79 45.79Q255.93 49.24 252.37 51.13Q248.82 53.02 243.87 53.02L243.87 53.02L241.03 52.97Q238.29 52.87 237.01 52.87L237.01 52.87Q233.00 52.87 230.94 53.02L230.94 53.02L230.94 52.04Q232.70 51.94 233.51 51.65Q234.32 51.35 234.61 50.52Q234.91 49.69 234.91 47.82L234.91 47.82L234.91 28.42Q234.91 26.56 234.61 25.72Q234.32 24.89 233.51 24.60Q232.70 24.30 230.94 24.21L230.94 24.21L230.94 23.23Q232.65 23.37 235.69 23.37L235.69 23.37L239.86 23.32Q243.19 23.23 244.31 23.23L244.31 23.23ZM243.09 24.11Q241.57 24.11 240.81 24.45Q240.05 24.79 239.76 25.68Q239.46 26.56 239.46 28.32L239.46 28.32L239.46 47.92Q239.46 49.69 239.76 50.57Q240.05 51.45 240.81 51.79Q241.57 52.14 243.14 52.14L243.14 52.14Q247.60 52.14 250.15 50.54Q252.69 48.95 253.72 45.86Q254.75 42.78 254.75 37.93L254.75 37.93Q254.75 30.77 252.11 27.44Q249.46 24.11 243.09 24.11L243.09 24.11ZM293.07 23.23L293.07 24.21Q291.35 24.30 290.52 24.72Q289.69 25.14 289.39 26.09Q289.10 27.05 289.10 28.91L289.10 28.91L289.10 39.74Q289.10 43.12 288.63 45.50Q288.17 47.87 287.09 49.64L287.09 49.64Q285.92 51.50 283.69 52.60Q281.46 53.70 278.61 53.70L278.61 53.70Q273.57 53.70 270.87 51.55L270.87 51.55Q268.72 49.64 267.98 47.19Q267.25 44.74 267.25 39.89L267.25 39.89L267.25 28.42Q267.25 26.56 266.95 25.72Q266.66 24.89 265.85 24.60Q265.04 24.30 263.28 24.21L263.28 24.21L263.28 23.23Q265.34 23.37 269.55 23.37L269.55 23.37Q273.47 23.37 275.77 23.23L275.77 23.23L275.77 24.21Q274.01 24.30 273.20 24.60Q272.39 24.89 272.10 25.72Q271.80 26.56 271.80 28.42L271.80 28.42L271.80 40.72Q271.80 44.34 272.29 46.72Q272.78 49.10 274.38 50.54Q275.97 51.99 279.06 51.99L279.06 51.99Q283.96 51.99 285.96 48.90Q287.97 45.81 287.97 40.28L287.97 40.28L287.97 28.91Q287.97 26.26 287.02 25.28Q286.06 24.30 283.51 24.21L283.51 24.21L283.51 23.23Q285.28 23.37 288.51 23.37L288.51 23.37Q291.45 23.37 293.07 23.23L293.07 23.23ZM311.25 22.54Q313.65 22.54 315.32 23.35Q316.98 24.16 318.79 25.72L318.79 25.72Q319.33 26.17 319.73 26.17L319.73 26.17Q320.71 26.17 321.00 23.23L321.00 23.23L322.13 23.23Q321.93 26.17 321.93 33.52L321.93 33.52L320.80 33.52Q320.31 30.97 319.82 29.74Q319.33 28.52 318.35 27.24L318.35 27.24Q316.98 25.43 315.07 24.48Q313.16 23.52 311.05 23.52L311.05 23.52Q308.16 23.52 306.03 25.28Q303.90 27.05 302.72 30.38Q301.55 33.71 301.55 38.22L301.55 38.22Q301.55 42.83 302.84 46.08Q304.14 49.34 306.37 51.03Q308.60 52.72 311.40 52.72L311.40 52.72Q313.55 52.72 315.54 51.77Q317.52 50.81 318.89 49L318.89 49Q319.82 47.73 320.29 46.30Q320.75 44.88 321.15 42.24L321.15 42.24L322.27 42.24Q322.27 49.93 322.47 53.02L322.47 53.02L321.34 53.02Q321.20 51.50 320.90 50.79Q320.61 50.08 320.12 50.08L320.12 50.08Q319.73 50.08 319.14 50.52L319.14 50.52Q317.28 52.09 315.51 52.90Q313.75 53.70 311.20 53.70L311.20 53.70Q306.84 53.70 303.56 51.92Q300.27 50.13 298.46 46.67Q296.65 43.22 296.65 38.42L296.65 38.42Q296.65 33.71 298.51 30.11Q300.37 26.51 303.70 24.52Q307.03 22.54 311.25 22.54L311.25 22.54ZM352.46 48.90Q353.78 51.94 355.84 52.04L355.84 52.04L355.84 53.02Q353.88 52.87 350.60 52.87L350.60 52.87Q346.38 52.87 344.32 53.02L344.32 53.02L344.32 52.04Q346.14 51.94 346.99 51.55Q347.85 51.16 347.85 50.23L347.85 50.23Q347.85 49.44 347.17 47.92L347.17 47.92L344.67 42.34L332.76 42.34L331.09 46.01Q330.26 47.92 330.26 49.15L330.26 49.15Q330.26 50.42 331.17 51.13Q332.07 51.84 334.08 52.04L334.08 52.04L334.08 53.02Q332.61 52.87 329.62 52.87L329.62 52.87Q326.63 52.87 325.36 53.02L325.36 53.02L325.36 52.04Q326.68 51.70 327.61 50.54Q328.55 49.39 329.38 47.48L329.38 47.48L340.21 22.98L340.99 22.98L352.46 48.90ZM333.15 41.36L344.27 41.36L338.74 28.91L333.15 41.36ZM382.74 23.23Q382.40 26.46 382.40 29.01L382.40 29.01Q382.40 31.56 382.54 33.03L382.54 33.03L381.42 33.03Q381.12 29.60 380.49 27.78Q379.85 25.97 378.43 25.16Q377.01 24.35 374.36 24.35L374.36 24.35L371.22 24.35L371.22 47.33Q371.22 49.39 371.62 50.32Q372.01 51.25 372.99 51.60Q373.97 51.94 376.17 52.04L376.17 52.04L376.17 53.02Q373.63 52.87 368.97 52.87L368.97 52.87Q364.07 52.87 361.72 53.02L361.72 53.02L361.72 52.04Q363.92 51.94 364.90 51.60Q365.88 51.25 366.28 50.32Q366.67 49.39 366.67 47.33L366.67 47.33L366.67 24.35L363.53 24.35Q360.89 24.35 359.46 25.16Q358.04 25.97 357.41 27.78Q356.77 29.60 356.48 33.03L356.48 33.03L355.35 33.03Q355.50 31.46 355.50 29.01L355.50 29.01Q355.50 26.46 355.15 23.23L355.15 23.23Q359.22 23.37 368.97 23.37L368.97 23.37Q378.67 23.37 382.74 23.23L382.74 23.23ZM398.96 23.23L398.96 24.21Q397.19 24.30 396.39 24.60Q395.58 24.89 395.28 25.72Q394.99 26.56 394.99 28.42L394.99 28.42L394.99 47.82Q394.99 49.69 395.28 50.52Q395.58 51.35 396.39 51.65Q397.19 51.94 398.96 52.04L398.96 52.04L398.96 53.02Q396.70 52.87 392.74 52.87L392.74 52.87Q388.52 52.87 386.46 53.02L386.46 53.02L386.46 52.04Q388.23 51.94 389.04 51.65Q389.84 51.35 390.14 50.52Q390.43 49.69 390.43 47.82L390.43 47.82L390.43 28.42Q390.43 26.56 390.14 25.72Q389.84 24.89 389.04 24.60Q388.23 24.30 386.46 24.21L386.46 24.21L386.46 23.23Q388.52 23.37 392.74 23.37L392.74 23.37Q396.66 23.37 398.96 23.23L398.96 23.23ZM418.26 22.54Q422.77 22.54 426.18 24.33Q429.58 26.12 431.45 29.57Q433.31 33.03 433.31 37.83L433.31 37.83Q433.31 42.53 431.37 46.13Q429.44 49.73 426.01 51.72Q422.58 53.70 418.22 53.70L418.22 53.70Q413.71 53.70 410.30 51.92Q406.90 50.13 405.03 46.67Q403.17 43.22 403.17 38.42L403.17 38.42Q403.17 33.71 405.11 30.11Q407.04 26.51 410.47 24.52Q413.90 22.54 418.26 22.54L418.26 22.54ZM418.07 23.42Q415.08 23.42 412.80 25.31Q410.52 27.20 409.30 30.55Q408.07 33.91 408.07 38.22L408.07 38.22Q408.07 42.58 409.44 45.91Q410.82 49.24 413.17 51.03Q415.52 52.82 418.41 52.82L418.41 52.82Q421.40 52.82 423.68 50.94Q425.96 49.05 427.18 45.69Q428.41 42.34 428.41 38.02L428.41 38.02Q428.41 33.66 427.04 30.33Q425.66 27.00 423.31 25.21Q420.96 23.42 418.07 23.42L418.07 23.42ZM467.31 23.23L467.31 24.21Q465.60 24.30 464.77 24.72Q463.93 25.14 463.64 26.09Q463.34 27.05 463.34 28.91L463.34 28.91L463.34 53.26L462.22 53.26L442.62 26.12L442.62 47.33Q442.62 49.24 442.94 50.18Q443.25 51.11 444.19 51.52Q445.12 51.94 447.08 52.04L447.08 52.04L447.08 53.02Q445.31 52.87 442.08 52.87L442.08 52.87Q439.14 52.87 437.52 53.02L437.52 53.02L437.52 52.04Q439.24 51.94 440.07 51.52Q440.90 51.11 441.20 50.15Q441.49 49.20 441.49 47.33L441.49 47.33L441.49 28.42Q441.49 26.56 441.20 25.72Q440.90 24.89 440.09 24.60Q439.29 24.30 437.52 24.21L437.52 24.21L437.52 23.23Q439.14 23.37 442.08 23.37L442.08 23.37Q444.72 23.37 446.59 23.23L446.59 23.23L462.22 44.98L462.22 28.91Q462.22 27.00 461.90 26.07Q461.58 25.14 460.65 24.72Q459.72 24.30 457.76 24.21L457.76 24.21L457.76 23.23Q459.52 23.37 462.76 23.37L462.76 23.37Q465.70 23.37 467.31 23.23L467.31 23.23Z" transform="translate(0, 0)"></path></g></svg></svg>
                </g>
            </svg>
        